<?xml version="1.0" encoding="utf-8"?>
<!-- Svg Vector Icons : http://www.onlinewebfonts.com/icon -->
<!DOCTYPE svg PUBLIC "-//W3C//DTD SVG 1.1//EN" "http://www.w3.org/Graphics/SVG/1.1/DTD/svg11.dtd">
<svg version="1.1" xmlns="http://www.w3.org/2000/svg" xmlns:xlink="http://www.w3.org/1999/xlink" x="0px" y="0px" viewBox="0 0 256 256" enable-background="new 0 0 256 256" xml:space="preserve">
<metadata> Svg Vector Icons : http://www.onlinewebfonts.com/icon </metadata>
<g><g><g><path fill="#000000" d="M76.9,39.4L26.1,68.8V128v59.2l51,29.4L128,246l51-29.4l50.9-29.4V128V68.8l-50.8-29.4C151.1,23.2,128.1,10,128,10S104.9,23.2,76.9,39.4z M174.6,48.3L220,74.5V128v53.4l-45.4,26.3c-27,15.6-45.9,26.3-46.6,26.3s-19.6-10.7-46.6-26.3L36,181.4l-0.1-53.3l-0.1-53.4l17.4-10.1C62.8,59,83.4,47.1,99,38.1c17.7-10.3,28.7-16.3,29.3-16.3C128.7,21.9,149.6,33.8,174.6,48.3z"/><path fill="#000000" d="M101.2,48.3C86.6,56.7,74.8,63.7,75,63.9c0.3,0.3,68.9,39.9,71.2,41.1l1,0.6V74.7V43.9l-9.6-5.5c-5.2-3-9.6-5.5-9.7-5.5C127.9,32.9,115.8,39.8,101.2,48.3z"/><path fill="#000000" d="M157,91.4v41.8l2.5-1.5c1.3-0.8,13.3-7.7,26.6-15.4l24.2-14l0-11v-11l-26.3-15.2c-14.5-8.4-26.5-15.3-26.7-15.4C157.2,49.8,157,68.5,157,91.4z"/><path fill="#000000" d="M55.1,74.9l-9.5,5.5v30.9v30.8l2.7-1.5c19.2-10.9,69.4-40,69.3-40.3c-0.1-0.3-52.6-30.9-52.9-30.8C64.6,69.4,60.3,71.9,55.1,74.9z"/><path fill="#000000" d="M174.1,134.8c-19.8,11.4-36.1,21-36.2,21.2c-0.1,0.4,51.4,30.2,52.6,30.5c0.3,0.1,5-2.3,10.2-5.3l9.6-5.5v-30.8c0-17,0-30.8-0.1-30.8C210.2,113.9,194,123.3,174.1,134.8z"/><path fill="#000000" d="M72.2,138.2l-26.6,15.3v11v11l26.6,15.4l26.6,15.3l0.1-20.8c0-11.5,0-30.2,0-41.6l-0.1-20.8L72.2,138.2z"/><path fill="#000000" d="M108.8,181.5V212l9.6,5.5l9.6,5.5l26.1-15c14.3-8.3,26.2-15.2,26.4-15.4c0.1-0.1-14.8-9-33.3-19.6c-18.5-10.6-34.7-20-36-20.8l-2.5-1.5V181.5L108.8,181.5z"/></g></g></g>
</svg>