<?xml version="1.0" encoding="utf-8"?>
<!-- Svg Vector Icons : http://www.onlinewebfonts.com/icon -->
<!DOCTYPE svg PUBLIC "-//W3C//DTD SVG 1.1//EN" "http://www.w3.org/Graphics/SVG/1.1/DTD/svg11.dtd">
<svg version="1.1" xmlns="http://www.w3.org/2000/svg" xmlns:xlink="http://www.w3.org/1999/xlink" x="0px" y="0px" viewBox="0 0 256 256" enable-background="new 0 0 256 256" xml:space="preserve">
<metadata> Svg Vector Icons : http://www.onlinewebfonts.com/icon </metadata>
<g><g><g><path stroke-width="10" fill-opacity="0" stroke="#000000"  d="M92.3,12.8C23.6,36.2-9.2,112.6,21.6,177.3c16.7,34.9,47.1,58.6,85.7,66.8c11.8,2.4,34.5,2.3,46.8-0.5c16.3-3.6,29.9-9.4,43.3-18.4c9.2-6.2,23-19.8,29.7-29.3c8.7-12.3,17.2-31,18.7-41.4c0.4-3.5,0.3-4.1-2.7-7c-3.6-3.6-4.3-3.7-13.2-1.8c-25.6,5.3-53.2,0.2-75.2-14.2c-33.3-21.8-51.3-61.4-45.1-99.7c0.8-4.7,1.6-10.1,2-11.9c0.5-3,0.2-3.7-2.7-6.6C105,9.3,102.5,9.3,92.3,12.8z M90.5,49c0.3,9.1,1.1,18.2,1.9,21.9c10.5,46.8,46,82.4,92.5,92.8c4.1,0.9,12.9,1.7,22.3,2c8.5,0.3,15.5,0.6,15.5,0.9c0,1.2-6.3,12.5-10,17.9c-5.2,7.6-18,20.3-25.6,25.3c-11.7,7.9-25.3,13.5-38.7,16c-9.5,1.8-27.7,1.8-37.1,0C70,218,38.2,186.2,30.3,145c-1.7-9.2-1.7-28.1,0-37.3C35.1,81.8,50.5,58,71.9,43.3c4.2-3,16.4-9.7,17.5-9.8C89.7,33.5,90.2,40.5,90.5,49z"/></g></g></g>
</svg>